<?xml version="1.0" standalone="no"?>
<!DOCTYPE svg PUBLIC "-//W3C//DTD SVG 20010904//EN"
 "http://www.w3.org/TR/2001/REC-SVG-20010904/DTD/svg10.dtd">
<svg version="1.0" xmlns="http://www.w3.org/2000/svg"
 width="904.000000pt" height="904.000000pt" viewBox="0 0 904.000000 904.000000"
 preserveAspectRatio="xMidYMid meet">
<metadata>
Created by potrace 1.11, written by Peter Selinger 2001-2013
</metadata>
<g transform="translate(0.000000,904.000000) scale(0.100000,-0.100000)"
fill="#000000" stroke="none">
<path d="M6652 9010 c-42 -26 -51 -51 -45 -130 12 -135 4 -500 -11 -590 -2
-14 -7 -49 -10 -78 -10 -86 -14 -110 -41 -252 -24 -125 -90 -373 -131 -492
-19 -57 -37 -107 -38 -113 -1 -5 -9 -26 -18 -46 -9 -20 -19 -47 -23 -60 -4
-13 -21 -52 -36 -87 -16 -34 -29 -65 -29 -67 0 -8 -153 -319 -160 -325 -3 -3
-19 -30 -34 -60 -74 -143 -317 -516 -366 -560 -3 -3 -23 -27 -45 -55 -78 -99
-379 -391 -490 -476 -16 -13 -32 -26 -35 -29 -3 -3 -36 -30 -75 -60 -38 -30
-75 -59 -81 -65 -6 -5 -22 -18 -35 -28 -89 -66 -338 -252 -359 -268 -14 -10
-77 -58 -140 -106 -63 -47 -140 -107 -171 -132 -31 -25 -76 -62 -100 -81 -52
-42 -115 -96 -154 -133 -17 -15 -33 -27 -37 -27 -4 0 6 26 21 58 16 31 39 80
51 107 12 28 33 74 46 103 13 29 24 55 24 57 0 2 11 29 25 59 14 30 25 59 25
63 0 5 9 28 20 51 11 22 20 46 20 52 0 6 7 25 16 41 8 17 17 38 20 47 2 10 30
94 62 187 74 214 141 445 177 605 2 8 4 17 5 20 1 3 3 10 5 15 1 6 3 12 4 15
2 3 4 14 5 25 2 11 12 61 24 110 47 201 53 315 28 505 -7 51 -42 185 -66 255
-11 33 -22 65 -24 70 -14 47 -108 238 -118 243 -5 2 -8 8 -8 14 0 5 -21 42
-47 81 -27 40 -50 77 -52 82 -2 6 -7 12 -10 15 -3 3 -20 23 -36 45 -53 71 -68
88 -180 201 -219 220 -438 347 -670 389 -118 21 -369 27 -500 11 -38 -4 -81
-9 -95 -10 -21 -2 -78 -14 -155 -31 -95 -21 -272 -75 -353 -109 -34 -13 -63
-22 -65 -20 -2 3 -10 -2 -17 -11 -7 -8 -19 -15 -28 -15 -38 0 -490 -258 -522
-299 -3 -3 -23 -19 -45 -36 -22 -16 -56 -43 -75 -60 -74 -65 -135 -121 -158
-145 -13 -14 -43 -45 -66 -70 -149 -158 -290 -374 -372 -570 -19 -47 -39 -92
-43 -100 -12 -23 -59 -189 -76 -271 -25 -120 -29 -159 -29 -299 1 -136 7 -200
24 -246 6 -14 9 -28 8 -32 -7 -25 107 -298 141 -336 9 -10 15 -21 14 -25 -4
-11 130 -184 182 -235 101 -99 242 -190 350 -227 81 -27 82 -23 29 74 -25 45
-53 98 -62 117 -9 19 -19 37 -22 40 -20 18 -83 195 -95 262 -2 13 -7 37 -10
53 -25 130 -25 362 0 500 24 133 78 332 96 349 5 6 9 17 9 25 0 54 227 446
320 551 17 19 52 59 78 89 45 52 121 127 192 192 85 77 356 268 369 260 2 -2
7 1 10 7 7 11 191 101 271 132 102 41 251 86 340 104 14 3 36 8 50 11 63 15
123 20 220 19 84 -1 114 -6 152 -23 77 -35 126 -107 146 -211 12 -62 4 -281
-12 -360 -23 -106 -29 -138 -31 -157 -2 -11 -6 -30 -9 -41 -4 -11 -8 -29 -10
-39 -37 -187 -160 -594 -247 -818 -13 -33 -24 -62 -24 -65 -1 -3 -5 -14 -10
-25 -4 -11 -21 -54 -37 -95 -17 -41 -38 -94 -49 -117 -10 -23 -19 -44 -19 -47
0 -2 -20 -47 -45 -100 -25 -53 -45 -103 -45 -110 0 -8 -7 -19 -15 -26 -8 -7
-15 -19 -15 -26 0 -8 -4 -22 -10 -32 -13 -23 -200 -413 -200 -417 0 -2 -24
-55 -54 -117 -53 -110 -175 -383 -180 -403 -2 -5 -8 -21 -13 -35 -107 -254
-236 -665 -267 -855 -3 -16 -12 -70 -21 -120 -14 -82 -18 -115 -30 -244 -4
-44 -8 -162 -5 -171 0 -3 3 -41 5 -85 3 -44 7 -91 10 -105 3 -14 8 -41 11 -60
3 -19 7 -44 10 -55 2 -11 7 -33 10 -50 49 -242 197 -588 349 -815 146 -218
344 -419 496 -504 73 -40 142 -77 172 -93 42 -22 94 -19 123 8 31 29 31 70 0
169 -12 41 -23 78 -24 83 0 4 -3 24 -6 45 -3 20 -9 57 -12 82 -3 25 -8 61 -10
80 -10 68 -4 495 6 495 1 0 3 16 5 35 2 32 9 81 21 170 3 19 9 58 14 85 5 28
12 64 15 80 7 43 13 74 19 93 3 9 7 33 10 52 17 106 43 180 103 294 22 42 123
139 168 162 167 87 358 58 543 -81 118 -89 294 -262 417 -409 22 -26 45 -53
50 -59 32 -36 140 -184 191 -262 32 -49 62 -92 65 -95 3 -3 8 -12 12 -20 4 -8
18 -33 32 -55 13 -22 29 -49 35 -60 6 -11 20 -36 32 -55 28 -47 176 -339 212
-420 16 -36 39 -86 52 -112 13 -27 21 -48 17 -48 -3 0 0 -6 6 -13 6 -8 17 -33
25 -56 9 -23 22 -56 30 -74 8 -17 31 -70 52 -117 20 -47 44 -95 52 -107 8 -13
11 -23 7 -23 -3 0 2 -12 13 -27 17 -26 39 -66 80 -148 9 -16 18 -32 21 -35 11
-9 71 -111 71 -120 0 -5 3 -10 8 -12 4 -2 29 -33 55 -70 141 -199 358 -427
513 -537 19 -13 34 -28 34 -33 0 -4 6 -8 13 -8 7 0 28 -13 47 -30 19 -16 40
-29 46 -30 6 0 19 -9 29 -20 10 -11 20 -18 23 -15 3 3 12 -1 21 -9 17 -16 195
-107 214 -110 7 -1 23 -8 37 -16 14 -7 25 -12 25 -11 0 1 7 0 15 -3 18 -6 104
-28 107 -28 2 1 17 -4 35 -9 62 -18 123 -23 253 -23 106 0 230 8 230 14 0 2
19 6 64 14 19 4 41 11 50 15 9 5 21 9 26 10 13 1 75 20 100 31 11 4 36 15 57
24 20 9 40 16 46 16 5 0 15 7 22 15 6 8 15 14 18 13 11 -3 92 42 179 99 81 53
172 143 204 203 9 16 22 36 28 44 7 8 14 21 15 28 2 7 6 20 9 28 37 100 44
150 27 209 -20 72 -70 78 -159 21 -33 -22 -78 -48 -99 -59 -118 -60 -280 -63
-416 -6 -20 8 -38 14 -40 13 -2 -2 -12 4 -22 12 -11 8 -35 24 -54 34 -52 28
-234 150 -238 158 -2 5 -8 6 -13 2 -5 -3 -9 -1 -9 4 0 5 -19 23 -43 40 -121
87 -340 304 -450 447 -4 6 -16 21 -28 35 -11 13 -29 39 -40 57 -11 18 -25 33
-30 33 -5 0 -9 6 -9 13 0 7 -9 23 -20 35 -11 12 -20 23 -20 26 0 2 -26 46 -58
97 -88 140 -202 354 -274 514 -55 122 -77 172 -103 235 -15 36 -35 81 -43 100
-9 19 -17 40 -18 45 -2 9 -25 64 -54 130 -5 11 -23 54 -40 95 -17 41 -39 93
-48 115 -32 76 -205 420 -214 426 -6 3 -8 8 -7 10 2 2 -4 15 -13 29 -8 14 -30
50 -49 80 -38 63 -143 211 -179 254 -203 239 -352 367 -605 519 l-47 27 51 35
c28 19 53 35 56 35 3 0 27 15 53 33 75 52 231 147 242 147 6 0 10 4 10 8 0 4
19 18 43 30 23 12 49 26 57 32 23 15 240 140 285 164 22 12 42 23 45 26 8 9
83 55 110 68 14 7 39 21 55 32 17 11 37 23 45 27 8 4 40 23 70 42 30 20 58 34
63 33 4 -1 7 3 7 8 0 6 7 10 15 10 8 0 15 5 15 10 0 6 7 10 15 10 8 0 15 5 15
10 0 6 4 10 10 10 12 0 224 141 228 152 2 4 8 8 13 8 6 0 15 5 22 10 7 6 39
31 72 55 190 144 377 325 516 501 29 38 57 74 62 79 77 97 206 312 282 469 56
115 121 297 140 391 4 17 24 119 30 150 16 78 28 228 29 342 1 57 5 103 9 103
5 0 5 5 2 10 -4 6 -8 50 -11 98 -2 48 -6 105 -9 127 -2 22 -7 64 -11 93 -3 29
-7 63 -10 75 -2 12 -7 38 -10 57 -3 19 -7 43 -10 52 -3 9 -7 27 -9 40 -3 13
-8 37 -12 53 -4 17 -8 35 -9 40 0 6 -9 37 -19 70 -11 33 -19 62 -20 65 0 3 -7
23 -14 45 -13 42 -19 57 -45 117 -9 20 -16 39 -16 42 0 21 -137 278 -152 284
-4 2 -8 8 -8 14 0 17 -111 157 -179 226 -74 74 -161 150 -194 169 -33 18 -78
15 -115 -7z"/>
</g>
</svg>
