<?xml version="1.0" encoding="utf-8"?>
<!-- Generator: Adobe Illustrator 23.0.4, SVG Export Plug-In . SVG Version: 6.00 Build 0)  -->
<svg version="1.1" id="Layer_1" xmlns="http://www.w3.org/2000/svg" xmlns:xlink="http://www.w3.org/1999/xlink" x="0px" y="0px"
	 viewBox="0 0 534.04 348" style="enable-background:new 0 0 534.04 348;" xml:space="preserve">
<g>
	<defs>
		<rect id="SVGID_1_" x="0" y="0" width="534.04" height="348"/>
	</defs>
	<clipPath id="SVGID_2_">
		<use xlink:href="#SVGID_1_"  style="overflow:visible;"/>
	</clipPath>
	<g style="clip-path:url(#SVGID_2_);">
		<polygon style="fill:#D2D3D3;" points="-9.5,-10 -2.5,144 2.5,90 		"/>
		<polygon style="fill:#CDCCCC;" points="-2.5,144 -5.5,281 3.5,203 		"/>
		<polygon style="fill:#E8E8E8;" points="2.5,90 -2.5,144 5.5,127 		"/>
		<polygon style="fill:#D7D7D7;" points="3.5,203 -5.5,281 5.5,226 		"/>
		<polygon style="fill:#DDDDDC;" points="-9.5,-10 2.5,90 6.5,53 		"/>
		<polygon style="fill:#D9D9D8;" points="-2.5,144 3.5,203 9.5,159 		"/>
		<polygon style="fill:#C9C9C9;" points="5.5,127 -2.5,144 9.5,159 		"/>
		<polygon style="fill:#E8E8E8;" points="-9.5,-10 6.5,53 10.5,9 		"/>
		<polygon style="fill:#CBCBCB;" points="-5.5,281 -9.5,360 11.5,317 		"/>
		<polygon style="fill:#E0E0DF;" points="-9.5,360 -3.5,356 11.5,317 		"/>
		<polygon style="fill:#C0BFBF;" points="5.5,226 -5.5,281 20.5,281 		"/>
		<polygon style="fill:#E9E9E9;" points="-5.5,281 11.5,317 20.5,281 		"/>
		<polygon style="fill:#E2E2E2;" points="10.5,9 6.5,53 24.5,33 		"/>
		<polygon style="fill:#E4E4E4;" points="9.5,159 3.5,203 26.5,162 		"/>
		<polygon style="fill:#E3E3E3;" points="5.5,127 9.5,159 27.5,126 		"/>
		<polygon style="fill:#DBDADA;" points="9.5,159 26.5,162 27.5,126 		"/>
		<polygon style="fill:#E8E8E8;" points="2.5,90 5.5,127 27.5,126 		"/>
		<polygon style="fill:#D9D9D8;" points="3.5,203 5.5,226 31.5,236 		"/>
		<polygon style="fill:#C4C4C4;" points="5.5,226 20.5,281 31.5,236 		"/>
		<polygon style="fill:#CDCCCC;" points="2.5,90 27.5,126 38.5,88 		"/>
		<polygon style="fill:#C8C7C7;" points="6.5,53 2.5,90 38.5,88 		"/>
		<polygon style="fill:#CFCFCE;" points="31.5,236 20.5,281 42.5,281 		"/>
		<polygon style="fill:#DDDDDC;" points="20.5,281 11.5,317 42.5,281 		"/>
		<polygon style="fill:#C2C1C1;" points="11.5,317 -3.5,356 45.5,331 		"/>
		<polygon style="fill:#CFD0D0;" points="42.5,281 11.5,317 45.5,331 		"/>
		<polygon style="fill:#D3D3D3;" points="-3.5,356 -9.5,360 48.5,356 		"/>
		<polygon style="fill:#D3D3D3;" points="45.5,331 -3.5,356 48.5,356 		"/>
		<polygon style="fill:#D7D6D6;" points="24.5,33 6.5,53 50.5,54 		"/>
		<polygon style="fill:#D3D3D3;" points="6.5,53 38.5,88 50.5,54 		"/>
		<polygon style="fill:#D1D2D2;" points="26.5,162 3.5,203 51.5,199 		"/>
		<polygon style="fill:#CFCFCE;" points="3.5,203 31.5,236 51.5,199 		"/>
		<polygon style="fill:#E0E1E0;" points="10.5,9 24.5,33 56.5,29 		"/>
		<polygon style="fill:#F1F0F0;" points="24.5,33 50.5,54 56.5,29 		"/>
		<polygon style="fill:#D1D2D2;" points="27.5,126 26.5,162 60.5,165 		"/>
		<polygon style="fill:#DBDADA;" points="26.5,162 51.5,199 60.5,165 		"/>
		<polygon style="fill:#E0E0DF;" points="-9.5,-10 10.5,9 70.5,-9 		"/>
		<polygon style="fill:#E5E5E5;" points="10.5,9 56.5,29 70.5,-9 		"/>
		<polygon style="fill:#D0D1D1;" points="38.5,88 27.5,126 70.5,110 		"/>
		<polygon style="fill:#DBDADA;" points="27.5,126 60.5,165 71.5,159 		"/>
		<polygon style="fill:#E0E1E0;" points="70.5,110 27.5,126 71.5,159 		"/>
		<polygon style="fill:#CFD0D0;" points="31.5,236 42.5,281 74.5,231 		"/>
		<polygon style="fill:#E1E1E1;" points="51.5,199 31.5,236 74.5,231 		"/>
		<polygon style="fill:#DCDBDB;" points="70.5,-9 56.5,29 79.5,5 		"/>
		<polygon style="fill:#E3E3E3;" points="56.5,29 50.5,54 85.5,37 		"/>
		<polygon style="fill:#CFD0D0;" points="79.5,5 56.5,29 85.5,37 		"/>
		<polygon style="fill:#E4E4E4;" points="50.5,54 38.5,88 85.5,86 		"/>
		<polygon style="fill:#D0D1D1;" points="38.5,88 70.5,110 85.5,86 		"/>
		<polygon style="fill:#D7D7D7;" points="85.5,37 50.5,54 87.5,60 		"/>
		<polygon style="fill:#E5E5E5;" points="50.5,54 85.5,86 87.5,60 		"/>
		<polygon style="fill:#D1D2D2;" points="51.5,199 74.5,231 92.5,185 		"/>
		<polygon style="fill:#D7D6D6;" points="60.5,165 51.5,199 92.5,185 		"/>
		<polygon style="fill:#CFCFCE;" points="71.5,159 60.5,165 92.5,185 		"/>
		<polygon style="fill:#C9C9C9;" points="45.5,331 48.5,356 93.5,326 		"/>
		<polygon style="fill:#DBDADA;" points="42.5,281 45.5,331 93.5,326 		"/>
		<polygon style="fill:#C2C2C2;" points="74.5,231 42.5,281 95.5,277 		"/>
		<polygon style="fill:#E5E5E5;" points="42.5,281 93.5,326 95.5,277 		"/>
		<polygon style="fill:#D9D9D8;" points="93.5,326 48.5,356 103.5,355 		"/>
		<polygon style="fill:#E0E0DF;" points="70.5,110 71.5,159 104.5,146 		"/>
		<polygon style="fill:#D7D6D6;" points="71.5,159 92.5,185 104.5,146 		"/>
		<polygon style="fill:#E2E2E2;" points="85.5,86 70.5,110 109.5,131 		"/>
		<polygon style="fill:#D1D2D2;" points="70.5,110 104.5,146 109.5,131 		"/>
		<polygon style="fill:#C8C7C7;" points="95.5,277 93.5,326 114.5,277 		"/>
		<polygon style="fill:#E5E5E5;" points="74.5,231 95.5,277 114.5,247 		"/>
		<polygon style="fill:#C8C8C8;" points="95.5,277 114.5,277 114.5,247 		"/>
		<polygon style="fill:#F0EFEF;" points="87.5,60 85.5,86 116.5,91 		"/>
		<polygon style="fill:#F1F0F0;" points="85.5,86 109.5,131 116.5,91 		"/>
		<polygon style="fill:#F0EFEF;" points="85.5,37 87.5,60 122.5,63 		"/>
		<polygon style="fill:#DBDADA;" points="87.5,60 116.5,91 122.5,63 		"/>
		<polygon style="fill:#ECECEC;" points="85.5,37 122.5,63 130.5,35 		"/>
		<polygon style="fill:#D7D7D7;" points="79.5,5 85.5,37 130.5,9 		"/>
		<polygon style="fill:#E0E0DF;" points="85.5,37 130.5,35 130.5,9 		"/>
		<polygon style="fill:#E5E5E5;" points="70.5,-9 79.5,5 131.5,-5 		"/>
		<polygon style="fill:#E6E6E5;" points="79.5,5 130.5,9 131.5,-5 		"/>
		<polygon style="fill:#CBCBCB;" points="93.5,326 103.5,355 132.5,315 		"/>
		<polygon style="fill:#CFCFCE;" points="114.5,277 93.5,326 132.5,315 		"/>
		<polygon style="fill:#D4D4D4;" points="92.5,185 74.5,231 134.5,225 		"/>
		<polygon style="fill:#C7C6C6;" points="74.5,231 114.5,247 134.5,225 		"/>
		<polygon style="fill:#E0E0DF;" points="104.5,146 92.5,185 143.5,161 		"/>
		<polygon style="fill:#E3E3E3;" points="92.5,185 134.5,225 143.5,161 		"/>
		<polygon style="fill:#EBEBEB;" points="109.5,131 104.5,146 143.5,161 		"/>
		<polygon style="fill:#E4E4E4;" points="70.5,-9 131.5,-5 150.5,-10 		"/>
		<polygon style="fill:#F3F3F3;" points="131.5,-5 130.5,9 150.5,-10 		"/>
		<polygon style="fill:#D9D9D8;" points="114.5,247 114.5,277 151.5,244 		"/>
		<polygon style="fill:#E3E3E3;" points="134.5,225 114.5,247 151.5,244 		"/>
		<polygon style="fill:#DDDDDC;" points="116.5,91 109.5,131 155.5,127 		"/>
		<polygon style="fill:#ECECEC;" points="109.5,131 143.5,161 155.5,127 		"/>
		<polygon style="fill:#D9D9D8;" points="132.5,315 103.5,355 156.5,346 		"/>
		<polygon style="fill:#D3D3D3;" points="143.5,161 134.5,225 161.5,214 		"/>
		<polygon style="fill:#E8E8E8;" points="134.5,225 151.5,244 161.5,214 		"/>
		<polygon style="fill:#E3E3E3;" points="122.5,63 116.5,91 162.5,98 		"/>
		<polygon style="fill:#F1F0F0;" points="116.5,91 155.5,127 162.5,98 		"/>
		<polygon style="fill:#E7E7E7;" points="130.5,35 122.5,63 172.5,70 		"/>
		<polygon style="fill:#E5E5E5;" points="122.5,63 162.5,98 172.5,70 		"/>
		<polygon style="fill:#E1E1E1;" points="130.5,35 172.5,70 178.5,46 		"/>
		<polygon style="fill:#E6E6E5;" points="130.5,9 130.5,35 178.5,46 		"/>
		<polygon style="fill:#E7E7E7;" points="150.5,-10 130.5,9 178.5,46 		"/>
		<polygon style="fill:#F4F4F4;" points="143.5,161 161.5,214 180.5,191 		"/>
		<polygon style="fill:#E4E4E4;" points="161.5,214 151.5,244 181.5,254 		"/>
		<polygon style="fill:#E7E7E7;" points="132.5,315 156.5,346 188.5,292 		"/>
		<polygon style="fill:#E9E9E9;" points="181.5,254 151.5,244 188.5,292 		"/>
		<polygon style="fill:#DDDDDC;" points="114.5,277 132.5,315 188.5,292 		"/>
		<polygon style="fill:#DFDFDE;" points="151.5,244 114.5,277 188.5,292 		"/>
		<polygon style="fill:#E9E9E9;" points="180.5,191 161.5,214 195.5,244 		"/>
		<polygon style="fill:#E0E0DF;" points="161.5,214 181.5,254 195.5,244 		"/>
		<polygon style="fill:#E4E4E4;" points="181.5,254 188.5,292 200.5,251 		"/>
		<polygon style="fill:#E6E6E5;" points="195.5,244 181.5,254 200.5,251 		"/>
		<polygon style="fill:#E0E0DF;" points="155.5,127 143.5,161 208.5,143 		"/>
		<polygon style="fill:#F3F3F3;" points="143.5,161 180.5,191 208.5,143 		"/>
		<polygon style="fill:#CFD0D0;" points="162.5,98 155.5,127 208.5,143 		"/>
		<polygon style="fill:#DFDFDE;" points="156.5,346 103.5,355 209.5,353 		"/>
		<polygon style="fill:#F1F0F0;" points="150.5,-10 178.5,46 211.5,-1 		"/>
		<polygon style="fill:#EAEAEA;" points="172.5,70 162.5,98 217.5,91 		"/>
		<polygon style="fill:#F1F0F0;" points="162.5,98 208.5,143 217.5,91 		"/>
		<polygon style="fill:#CDCCCC;" points="188.5,292 156.5,346 217.5,328 		"/>
		<polygon style="fill:#E5E5E5;" points="156.5,346 209.5,353 217.5,328 		"/>
		<polygon style="fill:#DEDEDD;" points="178.5,46 172.5,70 218.5,56 		"/>
		<polygon style="fill:#F1F0F0;" points="172.5,70 217.5,91 218.5,56 		"/>
		<polygon style="fill:#E0E0DF;" points="211.5,-1 178.5,46 218.5,56 		"/>
		<polygon style="fill:#E3E3E3;" points="195.5,244 200.5,251 218.5,217 		"/>
		<polygon style="fill:#F2F2F2;" points="180.5,191 195.5,244 218.5,217 		"/>
		<polygon style="fill:#E0E0DF;" points="188.5,292 217.5,328 228.5,323 		"/>
		<polygon style="fill:#F2F2F2;" points="211.5,-1 218.5,56 231.5,12 		"/>
		<polygon style="fill:#E4E4E4;" points="200.5,251 188.5,292 233.5,265 		"/>
		<polygon style="fill:#DCDBDB;" points="188.5,292 228.5,323 233.5,265 		"/>
		<polygon style="fill:#D1D2D2;" points="218.5,217 200.5,251 233.5,265 		"/>
		<polygon style="fill:#C7C6C6;" points="217.5,328 209.5,353 241.5,348 		"/>
		<polygon style="fill:#D7D6D6;" points="228.5,323 217.5,328 241.5,348 		"/>
		<polygon style="fill:#DBDADA;" points="208.5,143 180.5,191 247.5,172 		"/>
		<polygon style="fill:#EDEDED;" points="180.5,191 218.5,217 247.5,172 		"/>
		<polygon style="fill:#F0EFEF;" points="218.5,56 217.5,91 247.5,54 		"/>
		<polygon style="fill:#DEDEDD;" points="231.5,12 218.5,56 247.5,54 		"/>
		<polygon style="fill:#E3E3E3;" points="218.5,217 233.5,265 254.5,240 		"/>
		<polygon style="fill:#D6D5D5;" points="247.5,172 218.5,217 254.5,240 		"/>
		<polygon style="fill:#ECECEC;" points="217.5,91 208.5,143 261.5,143 		"/>
		<polygon style="fill:#F3F3F3;" points="208.5,143 247.5,172 261.5,143 		"/>
		<polygon style="fill:#EDEDED;" points="211.5,-1 231.5,12 262.5,-4 		"/>
		<polygon style="fill:#F0EFEF;" points="150.5,-10 211.5,-1 262.5,-4 		"/>
		<polygon style="fill:#E0E0DF;" points="231.5,12 247.5,54 262.5,11 		"/>
		<polygon style="fill:#D8D9D8;" points="262.5,-4 231.5,12 262.5,11 		"/>
		<polygon style="fill:#E9E9E9;" points="262.5,11 247.5,54 265.5,58 		"/>
		<polygon style="fill:#E2E2E2;" points="228.5,323 241.5,348 265.5,311 		"/>
		<polygon style="fill:#EBEBEB;" points="233.5,265 228.5,323 265.5,311 		"/>
		<polygon style="fill:#D9D9D8;" points="217.5,91 261.5,143 269.5,89 		"/>
		<polygon style="fill:#EFEEEE;" points="247.5,54 217.5,91 269.5,89 		"/>
		<polygon style="fill:#F3F3F3;" points="265.5,58 247.5,54 269.5,89 		"/>
		<polygon style="fill:#EBEBEB;" points="265.5,311 241.5,348 269.5,356 		"/>
		<polygon style="fill:#E6E6E5;" points="241.5,348 209.5,353 269.5,356 		"/>
		<polygon style="fill:#E1E1E1;" points="254.5,240 233.5,265 272.5,272 		"/>
		<polygon style="fill:#E0E1E0;" points="233.5,265 265.5,311 272.5,272 		"/>
		<polygon style="fill:#E9E9E9;" points="272.5,272 265.5,311 276.5,310 		"/>
		<polygon style="fill:#E5E5E5;" points="269.5,89 261.5,143 290.5,98 		"/>
		<polygon style="fill:#FAFAFA;" points="265.5,58 269.5,89 290.5,98 		"/>
		<polygon style="fill:#DFDFDE;" points="265.5,311 269.5,356 294.5,335 		"/>
		<polygon style="fill:#E9E9E9;" points="276.5,310 265.5,311 294.5,335 		"/>
		<polygon style="fill:#F5F6F6;" points="247.5,172 254.5,240 297.5,196 		"/>
		<polygon style="fill:#EBEBEB;" points="261.5,143 247.5,172 297.5,196 		"/>
		<polygon style="fill:#D7D6D6;" points="294.5,335 269.5,356 298.5,351 		"/>
		<polygon style="fill:#DDDDDC;" points="272.5,272 276.5,310 306.5,302 		"/>
		<polygon style="fill:#D6D5D5;" points="276.5,310 294.5,335 306.5,302 		"/>
		<polygon style="fill:#E4E4E4;" points="272.5,272 306.5,302 314.5,272 		"/>
		<polygon style="fill:#EAEAEA;" points="254.5,240 272.5,272 314.5,272 		"/>
		<polygon style="fill:#E4E4E4;" points="297.5,196 254.5,240 314.5,272 		"/>
		<polygon style="fill:#E5E5E5;" points="262.5,11 265.5,58 315.5,17 		"/>
		<polygon style="fill:#DEDEDD;" points="262.5,-4 262.5,11 315.5,17 		"/>
		<polygon style="fill:#EBEBEB;" points="290.5,98 261.5,143 325.5,149 		"/>
		<polygon style="fill:#E0E0DF;" points="261.5,143 297.5,196 325.5,149 		"/>
		<polygon style="fill:#E6E6E5;" points="290.5,98 325.5,149 325.5,106 		"/>
		<polygon style="fill:#ECECEC;" points="323.5,15 315.5,17 326.5,64 		"/>
		<polygon style="fill:#EAEAEA;" points="290.5,98 325.5,106 326.5,64 		"/>
		<polygon style="fill:#F6F6F6;" points="265.5,58 290.5,98 326.5,64 		"/>
		<polygon style="fill:#E0E1E0;" points="315.5,17 265.5,58 326.5,64 		"/>
		<polygon style="fill:#E7E7E7;" points="262.5,-4 315.5,17 326.5,-9 		"/>
		<polygon style="fill:#F2F2F2;" points="315.5,17 323.5,15 326.5,-9 		"/>
		<polygon style="fill:#DCDBDB;" points="150.5,-10 262.5,-4 326.5,-9 		"/>
		<polygon style="fill:#EAEAEA;" points="297.5,196 314.5,272 330.5,257 		"/>
		<polygon style="fill:#ECECEC;" points="325.5,149 297.5,196 340.5,155 		"/>
		<polygon style="fill:#EAEAEA;" points="325.5,106 325.5,149 340.5,155 		"/>
		<polygon style="fill:#F3F3F3;" points="297.5,196 330.5,257 347.5,202 		"/>
		<polygon style="fill:#D2D3D3;" points="340.5,155 297.5,196 347.5,202 		"/>
		<polygon style="fill:#E0E0DF;" points="314.5,272 306.5,302 350.5,312 		"/>
		<polygon style="fill:#E0E0DF;" points="294.5,335 298.5,351 350.5,312 		"/>
		<polygon style="fill:#D6D5D5;" points="306.5,302 294.5,335 350.5,312 		"/>
		<polygon style="fill:#F1F0F0;" points="330.5,257 314.5,272 350.5,265 		"/>
		<polygon style="fill:#E9E9E9;" points="314.5,272 350.5,312 350.5,265 		"/>
		<polygon style="fill:#E3E3E3;" points="350.5,312 298.5,351 356.5,359 		"/>
		<polygon style="fill:#C8C7C7;" points="298.5,351 269.5,356 356.5,359 		"/>
		<polygon style="fill:#DDDDDC;" points="350.5,312 356.5,359 365.5,358 		"/>
		<polygon style="fill:#E3E3E3;" points="326.5,-9 323.5,15 366.5,-3 		"/>
		<polygon style="fill:#F0EFEF;" points="347.5,202 330.5,257 373.5,216 		"/>
		<polygon style="fill:#F4F4F4;" points="330.5,257 350.5,265 373.5,216 		"/>
		<polygon style="fill:#E9E9E9;" points="350.5,312 365.5,358 379.5,359 		"/>
		<polygon style="fill:#E9E9E9;" points="365.5,358 356.5,359 379.5,359 		"/>
		<polygon style="fill:#FAFAFA;" points="323.5,15 326.5,64 384.5,37 		"/>
		<polygon style="fill:#E5E5E5;" points="366.5,-3 323.5,15 384.5,37 		"/>
		<polygon style="fill:#F1F0F0;" points="340.5,155 347.5,202 384.5,177 		"/>
		<polygon style="fill:#E4E4E4;" points="347.5,202 373.5,216 384.5,177 		"/>
		<polygon style="fill:#DBDADA;" points="350.5,265 350.5,312 388.5,284 		"/>
		<polygon style="fill:#E3E3E3;" points="326.5,64 325.5,106 396.5,87 		"/>
		<polygon style="fill:#EDEDED;" points="384.5,37 326.5,64 396.5,87 		"/>
		<polygon style="fill:#F4F4F4;" points="340.5,155 384.5,177 396.5,107 		"/>
		<polygon style="fill:#F1F0F0;" points="325.5,106 340.5,155 396.5,107 		"/>
		<polygon style="fill:#FAFAFA;" points="396.5,87 325.5,106 396.5,107 		"/>
		<polygon style="fill:#F3F3F3;" points="366.5,-3 384.5,37 403.5,17 		"/>
		<polygon style="fill:#E7E7E7;" points="373.5,216 350.5,265 406.5,266 		"/>
		<polygon style="fill:#E0E0DF;" points="350.5,265 388.5,284 406.5,266 		"/>
		<polygon style="fill:#EDEDED;" points="373.5,216 406.5,266 415.5,232 		"/>
		<polygon style="fill:#E0E0DF;" points="350.5,312 379.5,359 419.5,326 		"/>
		<polygon style="fill:#D9D9D8;" points="388.5,284 350.5,312 419.5,326 		"/>
		<polygon style="fill:#E0E1E0;" points="419.5,326 379.5,359 422.5,354 		"/>
		<polygon style="fill:#E8E8E8;" points="384.5,177 373.5,216 426.5,186 		"/>
		<polygon style="fill:#DEDEDD;" points="373.5,216 415.5,232 426.5,186 		"/>
		<polygon style="fill:#EDEDED;" points="406.5,266 388.5,284 436.5,307 		"/>
		<polygon style="fill:#E2E2E2;" points="388.5,284 419.5,326 436.5,307 		"/>
		<polygon style="fill:#E0E0DF;" points="426.5,186 415.5,232 439.5,189 		"/>
		<polygon style="fill:#E8E8E8;" points="403.5,17 384.5,37 446.5,55 		"/>
		<polygon style="fill:#E2E2E2;" points="443.5,27 403.5,17 446.5,55 		"/>
		<polygon style="fill:#F0EFEF;" points="384.5,37 396.5,87 446.5,55 		"/>
		<polygon style="fill:#EBEBEB;" points="406.5,266 436.5,307 449.5,284 		"/>
		<polygon style="fill:#F1F0F0;" points="396.5,107 384.5,177 450.5,138 		"/>
		<polygon style="fill:#F7F8F8;" points="384.5,177 426.5,186 450.5,138 		"/>
		<polygon style="fill:#E0E0DF;" points="446.5,55 396.5,87 452.5,92 		"/>
		<polygon style="fill:#DEDEDD;" points="396.5,87 396.5,107 452.5,92 		"/>
		<polygon style="fill:#E2E2E2;" points="396.5,107 450.5,138 452.5,92 		"/>
		<polygon style="fill:#D8D9D8;" points="419.5,326 422.5,354 457.5,343 		"/>
		<polygon style="fill:#CFCFCE;" points="436.5,307 419.5,326 457.5,343 		"/>
		<polygon style="fill:#E9E9E9;" points="426.5,186 439.5,189 457.5,165 		"/>
		<polygon style="fill:#E4E4E4;" points="450.5,138 426.5,186 457.5,165 		"/>
		<polygon style="fill:#E2E2E2;" points="415.5,232 406.5,266 459.5,250 		"/>
		<polygon style="fill:#D9D9D8;" points="406.5,266 449.5,284 459.5,250 		"/>
		<polygon style="fill:#E5E5E5;" points="439.5,189 415.5,232 459.5,250 		"/>
		<polygon style="fill:#F3F3F3;" points="452.5,92 450.5,138 463.5,89 		"/>
		<polygon style="fill:#ECECEC;" points="446.5,55 452.5,92 463.5,89 		"/>
		<polygon style="fill:#E8E8E8;" points="326.5,-9 366.5,-3 474.5,-4 		"/>
		<polygon style="fill:#EDEDED;" points="403.5,17 443.5,27 474.5,-4 		"/>
		<polygon style="fill:#EFEEEE;" points="366.5,-3 403.5,17 474.5,-4 		"/>
		<path style="fill:#E8E8E8;" d="M474.5-4l-11,93L474.5-4z"/>
		<polygon style="fill:#DEDEDD;" points="439.5,189 459.5,250 478.5,215 		"/>
		<polygon style="fill:#E7E7E7;" points="449.5,284 436.5,307 483.5,315 		"/>
		<polygon style="fill:#E8E8E8;" points="436.5,307 457.5,343 483.5,315 		"/>
		<polygon style="fill:#E4E4E4;" points="457.5,165 439.5,189 489.5,189 		"/>
		<polygon style="fill:#DFDFDE;" points="439.5,189 478.5,215 489.5,189 		"/>
		<polygon style="fill:#EAEAEA;" points="474.5,-4 463.5,89 494.5,40 		"/>
		<polygon style="fill:#DBDADA;" points="474.5,-4 474.5,-4 494.5,40 		"/>
		<polygon style="fill:#E7E7E7;" points="443.5,27 446.5,55 494.5,40 		"/>
		<polygon style="fill:#E2E2E2;" points="474.5,-4 443.5,27 494.5,40 		"/>
		<polygon style="fill:#EAEAEA;" points="463.5,89 474.5,-4 494.5,40 		"/>
		<polygon style="fill:#E8E8E8;" points="446.5,55 463.5,89 496.5,76 		"/>
		<polygon style="fill:#E3E3E3;" points="494.5,40 446.5,55 496.5,76 		"/>
		<polygon style="fill:#EAEAEA;" points="463.5,89 450.5,138 497.5,112 		"/>
		<polygon style="fill:#E8E8E8;" points="496.5,76 463.5,89 497.5,112 		"/>
		<polygon style="fill:#E5E5E5;" points="457.5,165 489.5,189 498.5,151 		"/>
		<polygon style="fill:#EFEEEE;" points="450.5,138 457.5,165 498.5,151 		"/>
		<polygon style="fill:#F4F4F4;" points="497.5,112 450.5,138 498.5,151 		"/>
		<polygon style="fill:#E1E1E1;" points="459.5,250 449.5,284 499.5,286 		"/>
		<polygon style="fill:#E0E1E0;" points="449.5,284 483.5,315 499.5,286 		"/>
		<polygon style="fill:#D0D1D1;" points="483.5,315 457.5,343 500.5,353 		"/>
		<polygon style="fill:#DEDEDD;" points="457.5,343 422.5,354 500.5,353 		"/>
		<polygon style="fill:#DFDFDE;" points="478.5,215 459.5,250 512.5,255 		"/>
		<polygon style="fill:#E4E4E4;" points="459.5,250 499.5,286 512.5,255 		"/>
		<polygon style="fill:#D2D3D3;" points="483.5,315 500.5,353 519.5,334 		"/>
		<polygon style="fill:#F6F6F6;" points="497.5,112 498.5,151 521.5,128 		"/>
		<polygon style="fill:#DBDADA;" points="489.5,189 478.5,215 522.5,227 		"/>
		<polygon style="fill:#E8E8E8;" points="478.5,215 512.5,255 522.5,227 		"/>
		<polygon style="fill:#E1E1E1;" points="499.5,286 483.5,315 523.5,324 		"/>
		<polygon style="fill:#D8D9D8;" points="483.5,315 519.5,334 523.5,324 		"/>
		<polygon style="fill:#EAEAEA;" points="521.5,128 498.5,151 527.5,183 		"/>
		<polygon style="fill:#F1F0F0;" points="498.5,151 489.5,189 527.5,183 		"/>
		<polygon style="fill:#F1F0F0;" points="489.5,189 522.5,227 527.5,183 		"/>
		<polygon style="fill:#D4D4D4;" points="512.5,255 499.5,286 533.5,294 		"/>
		<polygon style="fill:#EBEBEB;" points="499.5,286 523.5,324 533.5,294 		"/>
		<polygon style="fill:#E9E9E9;" points="521.5,128 527.5,183 537.5,78 		"/>
		<polygon style="fill:#E8E8E8;" points="494.5,40 496.5,76 537.5,78 		"/>
		<polygon style="fill:#E1E1E1;" points="496.5,76 497.5,112 537.5,78 		"/>
		<polygon style="fill:#E3E3E3;" points="497.5,112 521.5,128 537.5,78 		"/>
		<polygon style="fill:#F3F3F3;" points="494.5,40 537.5,78 538.5,17 		"/>
		<polygon style="fill:#D0D1D1;" points="474.5,-4 494.5,40 538.5,6 		"/>
		<polygon style="fill:#DCDBDB;" points="494.5,40 538.5,17 538.5,6 		"/>
		<polygon style="fill:#D8D9D8;" points="512.5,255 533.5,294 538.5,263 		"/>
		<polygon style="fill:#D0D1D1;" points="538.5,263 533.5,294 545.5,244 		"/>
		<polygon style="fill:#DBDADA;" points="527.5,183 522.5,227 545.5,244 		"/>
		<polygon style="fill:#E9E9E9;" points="522.5,227 512.5,255 545.5,244 		"/>
		<polygon style="fill:#E1E1E1;" points="512.5,255 538.5,263 545.5,244 		"/>
		<polygon style="fill:#ECECEC;" points="537.5,78 527.5,183 545.5,244 		"/>
		<polygon style="fill:#E9E9E9;" points="538.5,6 538.5,17 546.5,-10 		"/>
		<polygon style="fill:#F4F4F4;" points="474.5,-4 538.5,6 546.5,-10 		"/>
		<polygon style="fill:#CFD0D0;" points="538.5,17 537.5,78 546.5,-10 		"/>
		<polygon style="fill:#E4E4E4;" points="326.5,-9 474.5,-4 546.5,-10 		"/>
		<polygon style="fill:#CACACA;" points="545.5,244 533.5,294 546.5,360 		"/>
		<polygon style="fill:#DDDDDC;" points="533.5,294 523.5,324 546.5,360 		"/>
		<polygon style="fill:#D0D1D1;" points="523.5,324 519.5,334 546.5,360 		"/>
		<polygon style="fill:#CBCBCB;" points="519.5,334 500.5,353 546.5,360 		"/>
		<polygon style="fill:#DBDADA;" points="500.5,353 422.5,354 546.5,360 		"/>
	</g>
</g>
</svg>
